<svg width="100%" height="100%" id="svg" viewBox="0 0 1440 690" xmlns="http://www.w3.org/2000/svg" class="transition duration-300 ease-in-out delay-150"><defs><linearGradient id="gradient" x1="0%" y1="50%" x2="100%" y2="50%"><stop offset="5%" stop-color="#1c6758"></stop><stop offset="95%" stop-color="#a1c298"></stop></linearGradient></defs><path d="M 0,700 C 0,700 0,140 0,140 C 84.1307692307692,114.62051282051283 168.2615384615384,89.24102564102564 251,103 C 333.7384615384616,116.75897435897436 415.0846153846154,169.65641025641025 487,175 C 558.9153846153846,180.34358974358975 621.4,138.13333333333333 709,129 C 796.6,119.86666666666666 909.3153846153846,143.81025641025644 986,162 C 1062.6846153846154,180.18974358974356 1103.3384615384616,192.62564102564104 1173,188 C 1242.6615384615384,183.37435897435896 1341.3307692307692,161.6871794871795 1440,140 C 1440,140 1440,700 1440,700 Z" stroke="none" stroke-width="0" fill="url(#gradient)" fill-opacity="0.265" class="transition-all duration-300 ease-in-out delay-150 path-0"></path><defs><linearGradient id="gradient" x1="0%" y1="50%" x2="100%" y2="50%"><stop offset="5%" stop-color="#1c6758"></stop><stop offset="95%" stop-color="#a1c298"></stop></linearGradient></defs><path d="M 0,700 C 0,700 0,280 0,280 C 59.12820512820514,300.0153846153846 118.25641025641028,320.03076923076924 205,319 C 291.7435897435897,317.96923076923076 406.102564102564,295.89230769230767 506,280 C 605.897435897436,264.10769230769233 691.3333333333333,254.40000000000003 764,271 C 836.6666666666667,287.59999999999997 896.5641025641025,330.5076923076923 978,330 C 1059.4358974358975,329.4923076923077 1162.4102564102566,285.5692307692308 1243,270 C 1323.5897435897434,254.43076923076924 1381.7948717948716,267.2153846153846 1440,280 C 1440,280 1440,700 1440,700 Z" stroke="none" stroke-width="0" fill="url(#gradient)" fill-opacity="0.4" class="transition-all duration-300 ease-in-out delay-150 path-1"></path><defs><linearGradient id="gradient" x1="0%" y1="50%" x2="100%" y2="50%"><stop offset="5%" stop-color="#1c6758"></stop><stop offset="95%" stop-color="#a1c298"></stop></linearGradient></defs><path d="M 0,700 C 0,700 0,420 0,420 C 96.24615384615385,427.4923076923077 192.4923076923077,434.9846153846153 256,443 C 319.5076923076923,451.0153846153847 350.276923076923,459.5538461538462 436,469 C 521.723076923077,478.4461538461538 662.4000000000001,488.79999999999995 753,469 C 843.5999999999999,449.20000000000005 884.1230769230767,399.24615384615385 941,383 C 997.8769230769233,366.75384615384615 1071.1076923076923,384.2153846153846 1157,396 C 1242.8923076923077,407.7846153846154 1341.4461538461537,413.89230769230767 1440,420 C 1440,420 1440,700 1440,700 Z" stroke="none" stroke-width="0" fill="url(#gradient)" fill-opacity="0.53" class="transition-all duration-300 ease-in-out delay-150 path-2"></path><defs><linearGradient id="gradient" x1="0%" y1="50%" x2="100%" y2="50%"><stop offset="5%" stop-color="#1c6758"></stop><stop offset="95%" stop-color="#a1c298"></stop></linearGradient></defs><path d="M 0,700 C 0,700 0,560 0,560 C 98.73333333333332,561.0307692307692 197.46666666666664,562.0615384615385 274,569 C 350.53333333333336,575.9384615384615 404.8666666666667,588.7846153846153 482,578 C 559.1333333333333,567.2153846153847 659.0666666666666,532.8000000000001 748,527 C 836.9333333333334,521.1999999999999 914.8666666666666,544.0153846153845 995,565 C 1075.1333333333334,585.9846153846155 1157.4666666666667,605.1384615384616 1232,604 C 1306.5333333333333,602.8615384615384 1373.2666666666667,581.4307692307692 1440,560 C 1440,560 1440,700 1440,700 Z" stroke="none" stroke-width="0" fill="url(#gradient)" fill-opacity="1" class="transition-all duration-300 ease-in-out delay-150 path-3"></path></svg>